<svg width="16" height="16" viewBox="0 0 16 16" fill="none" xmlns="http://www.w3.org/2000/svg">
<path d="M13.2521 5.24262C13.2166 5.19221 13.1695 5.15106 13.1148 5.12264C13.0601 5.09423 12.9994 5.07937 12.9377 5.07933H4.72448L4.10277 2.93537C3.85896 2.09114 3.27962 2 3.042 2H1.3843C1.17183 2 1 2.17202 1 2.38429C1 2.59656 1.17202 2.76856 1.38429 2.76856H3.0418C3.09423 2.76856 3.25426 2.76856 3.3634 3.14569L5.50214 11.0058C5.54858 11.1716 5.6997 11.2862 5.8721 11.2862H11.0962C11.2583 11.2862 11.4031 11.1846 11.4578 11.0319L13.2992 5.59363C13.3415 5.47579 13.3239 5.3446 13.2521 5.24262ZM10.8257 10.5178H6.16378L4.94049 5.8481H12.3913L10.8257 10.5178ZM10.0636 12.065C9.52911 12.065 9.09606 12.4981 9.09606 13.0325C9.09606 13.567 9.52911 14 10.0636 14C10.598 14 11.031 13.567 11.031 13.0325C11.031 12.4981 10.598 12.065 10.0636 12.065ZM6.58058 12.065C6.04614 12.065 5.61309 12.4981 5.61309 13.0325C5.61309 13.567 6.04614 14 6.58058 14C7.11502 14 7.54807 13.567 7.54807 13.0325C7.54807 12.4981 7.11502 12.065 6.58058 12.065Z" fill="#F00CBB"/>
</svg>
