<svg width="16" height="16" viewBox="0 0 16 16" fill="none" xmlns="http://www.w3.org/2000/svg">
<rect width="16" height="16" fill="#F00CBB"/>
<circle cx="7.99999" cy="7.99999" r="6.22222" fill="white"/>
<path fill-rule="evenodd" clip-rule="evenodd" d="M13.7778 8.00001C13.7778 8.78747 13.6202 9.53815 13.335 10.2222H11.0554C11.5097 9.59863 11.7778 8.83062 11.7778 8.00001C11.7778 5.9136 10.0864 4.22223 8 4.22223C5.91359 4.22223 4.22222 5.9136 4.22222 8.00001C4.22222 8.83062 4.49029 9.59863 4.94462 10.2222H2.66504C2.37977 9.53815 2.22223 8.78747 2.22223 8.00001C2.22223 4.80903 4.80903 2.22223 8.00001 2.22223C11.191 2.22223 13.7778 4.80903 13.7778 8.00001ZM5.51544 10.2222C4.98762 9.6325 4.66667 8.85373 4.66667 8.00001C4.66667 6.33755 5.88368 4.95935 7.47539 4.70772C7.37157 4.84627 7.25548 5.01848 7.13965 5.22439C6.7904 5.84529 6.44444 6.77134 6.44444 8.00001C6.44444 8.90541 6.63231 9.64649 6.87091 10.2222H5.51544ZM8.5246 4.70772C10.1163 4.95934 11.3333 6.33755 11.3333 8.00001C11.3333 8.85373 11.0124 9.6325 10.4846 10.2222H9.12908C9.36769 9.64649 9.55555 8.90541 9.55555 8.00001C9.55555 6.77134 9.2096 5.84529 8.86034 5.22439C8.74452 5.01848 8.62842 4.84627 8.5246 4.70772ZM8.64411 10.2222H7.35588C7.1038 9.67487 6.88889 8.9346 6.88889 8.00001C6.88889 6.8583 7.2096 6.00658 7.52702 5.44229C7.68596 5.15972 7.84429 4.9489 7.96151 4.80998C7.9749 4.79411 7.98775 4.77918 7.99999 4.7652C8.01224 4.77918 8.02509 4.79411 8.03848 4.80998C8.1557 4.94891 8.31403 5.15972 8.47298 5.44229C8.79039 6.00658 9.1111 6.8583 9.1111 8.00001C9.1111 8.9346 8.8962 9.67487 8.64411 10.2222ZM8.00001 13.7778C6.36147 13.7778 4.88223 13.0957 3.83074 12H12.1693C11.1178 13.0957 9.63855 13.7778 8.00001 13.7778Z" fill="#F00CBB"/>
<path d="M4.44446 8H11.5556" stroke="white" stroke-width="0.444444" stroke-linejoin="round"/>
<path d="M11.1111 6.22223H4.88889" stroke="white" stroke-width="0.444444" stroke-linejoin="round"/>
<g filter="url(#filter0_d_52_25)">
<path d="M11.1111 9.77777H4.88889" stroke="white" stroke-width="0.444444" stroke-linejoin="round"/>
</g>
<defs>
<filter id="filter0_d_52_25" x="4.44444" y="9.55554" width="7.11112" height="1.33335" filterUnits="userSpaceOnUse" color-interpolation-filters="sRGB">
<feFlood flood-opacity="0" result="BackgroundImageFix"/>
<feColorMatrix in="SourceAlpha" type="matrix" values="0 0 0 0 0 0 0 0 0 0 0 0 0 0 0 0 0 0 127 0" result="hardAlpha"/>
<feOffset dy="0.444444"/>
<feGaussianBlur stdDeviation="0.222222"/>
<feColorMatrix type="matrix" values="0 0 0 0 0 0 0 0 0 0 0 0 0 0 0 0 0 0 0.1 0"/>
<feBlend mode="normal" in2="BackgroundImageFix" result="effect1_dropShadow_52_25"/>
<feBlend mode="normal" in="SourceGraphic" in2="effect1_dropShadow_52_25" result="shape"/>
</filter>
</defs>
</svg>
