<svg width="16" height="16" viewBox="0 0 16 16" fill="none" xmlns="http://www.w3.org/2000/svg">
<path d="M13.542 15.1026C13.542 14.6069 13.9565 13.4487 14.5093 13C15.062 13.4487 15.4765 14.6069 15.4765 15.1026C15.4765 15.5982 15.0435 16 14.5093 16C13.975 16 13.542 15.5982 13.542 15.1026Z" fill="#F00C35"/>
<path d="M4.82414 2.626C5.09669 1.81383 6.10888 0.94026 7.22263 0.478289C7.8429 1.48688 8.13123 2.77041 7.85869 3.58257C7.58614 4.39474 6.6859 4.83899 5.84793 4.57484C5.00997 4.31069 4.5516 3.43816 4.82414 2.626Z" fill="#36A51B"/>
<path d="M3.67388 4.73077C3.38356 3.92441 3.64361 2.63522 4.24158 1.61406C5.36524 2.05294 6.39639 2.90542 6.68672 3.71178C6.97705 4.51813 6.53796 5.39992 5.70598 5.68131C4.87401 5.9627 3.96421 5.53713 3.67388 4.73077Z" fill="#218807"/>
<path d="M3.18828 6.54669C2.36777 6.23527 1.52748 5.20461 1.1171 4.09986C2.19238 3.55899 3.53134 3.35544 4.35184 3.66686C5.17234 3.97828 5.57702 4.8754 5.25571 5.67064C4.9344 6.46588 4.00878 6.8581 3.18828 6.54669Z" fill="#36A51B"/>
<path d="M3.90864 8.31508C3.10529 8.666 1.75748 8.52781 0.655567 8.03989C1.00825 6.91659 1.79414 5.84637 2.59749 5.49545C3.40085 5.14454 4.3456 5.49126 4.70767 6.26988C5.06973 7.0485 4.71199 7.96417 3.90864 8.31508Z" fill="#218807"/>
<path d="M15.1838 11.7367C14.9433 14.1657 11.7326 13.1912 7.46678 12.7946C4.84908 12.5512 2.9981 9.61515 3.23852 7.18618C3.47894 4.7572 7.73535 2.72192 10.353 2.96531C12.9707 3.20871 15.4242 9.30773 15.1838 11.7367Z" fill="#F00C35"/>
<ellipse rx="0.410491" ry="0.26909" transform="matrix(0.883328 0.468755 -0.491861 0.870674 5.50939 7.3052)" fill="#D9D9D9"/>
<ellipse rx="0.410491" ry="0.26909" transform="matrix(0.883328 0.468755 -0.491861 0.870674 7.38231 6.66348)" fill="#D9D9D9"/>
<ellipse rx="0.410491" ry="0.26909" transform="matrix(0.883328 0.468755 -0.491861 0.870674 9.44927 5.72859)" fill="#D9D9D9"/>
<ellipse rx="0.410491" ry="0.26909" transform="matrix(0.883328 0.468755 -0.491861 0.870674 12.6403 9.4841)" fill="#D9D9D9"/>
<ellipse rx="0.410491" ry="0.26909" transform="matrix(0.883328 0.468755 -0.491861 0.870674 7.33284 8.60045)" fill="#D9D9D9"/>
<ellipse rx="0.410491" ry="0.26909" transform="matrix(0.883328 0.468755 -0.491861 0.870674 5.73735 9.97716)" fill="#D9D9D9"/>
<ellipse rx="0.410491" ry="0.26909" transform="matrix(0.883328 0.468755 -0.491861 0.870674 8.01662 10.3677)" fill="#D9D9D9"/>
<ellipse rx="0.410491" ry="0.26909" transform="matrix(0.883328 0.468755 -0.491861 0.870674 10.7518 10.3677)" fill="#D9D9D9"/>
<ellipse rx="0.410491" ry="0.26909" transform="matrix(0.883328 0.468755 -0.491861 0.870674 9.84008 8.0301)" fill="#D9D9D9"/>
<ellipse rx="0.410491" ry="0.26909" transform="matrix(0.883328 0.468755 -0.491861 0.870674 13.0311 11.7856)" fill="#D9D9D9"/>
<ellipse rx="0.410491" ry="0.26909" transform="matrix(0.883328 0.468755 -0.491861 0.870674 11.6314 7.49589)" fill="#D9D9D9"/>
</svg>
